<?xml version="1.0" encoding="UTF-8"?> <!-- Generator: Adobe Illustrator 22.0.0, SVG Export Plug-In . SVG Version: 6.00 Build 0) --> <svg xmlns="http://www.w3.org/2000/svg" xmlns:xlink="http://www.w3.org/1999/xlink" id="Layer_1" x="0px" y="0px" viewBox="0 0 430.6 160.5" style="enable-background:new 0 0 430.6 160.5;" xml:space="preserve"> <style type="text/css"> .st0{fill:#FFFFFF;} </style> <path class="st0" d="M388.4,126l-68.8-3.5l-66.1-1.2l-66.8,1.3l-57.6,3.3l-20.8,2.3L91.7,131l-7,1.5l-6.2,1.6l-10.6,3.3l-4.2,1.5 l-3.2,1.4l-1.3,0.6l-1,0.6l-0.9,0.5l-0.4,0.3l-0.3,0.3l-0.3,0.3l-0.3,0.2l-0.2,0.2l-0.2,0.2l-0.2,0.2l-0.2,0.2l-0.1,0.2l-0.1,0.2 l-0.1,0.2l-0.1,0.2l-0.2,0.4l-0.2,0.9v0.2v0.2v0.2v0.2v0.3v0.3v0.3v0.2l0.1,0.5l0.1,0.5l0.1,0.6l0.2,0.6l0.4,1.2l0.5,1.2l1.1,2.4 l-17.7-0.8l-8.1-0.7l-3.8-0.4l-3.5-0.6l-8.3-1.8l-4.6-1.3l-2.2-0.7l-2.1-0.8L4.7,147l-0.9,0.4L3,147l-0.7-0.4L2,146.4l-0.3-0.2 L1.4,146l-0.3-0.2l-0.3-0.4l-0.2-0.2l-0.1-0.1L0.4,145l-0.1-0.1l-0.1-0.1l-0.1-0.1L0,144.6v-0.1v-0.1v-0.1v-0.1v-0.1V144v-0.1v-0.1 v-0.1v-0.1v-0.1v-0.1v-0.1l0.1-0.1v-0.1l0.1-0.1l0.1-0.1l0.1-0.1l0.1-0.1l0.1-0.1l0.1-0.1l0.1-0.1l0.1-0.1l0.2-0.1l0.3-0.2l0.7-0.5 L3,141l2-1.1l2.5-1.2l2.9-1.2l6.9-2.6l8.2-2.6l9.3-2.6l10.1-2.5l10.8-2.3l11.2-2l24.8-3l28.4-2.2l62.3-4.1l0,0l130.8-74.2l43.2-25 l16.1-8.7l3.4-1.6l3.2-1.4l3-1.1l1.4-0.4l1.4-0.4l1.3-0.3l1.2-0.2l1.1-0.2l1-0.1h0.5h0.5h0.5h0.4l0.4,0.1h0.4l0.4,0.1l0.4,0.1 l0.3,0.1l0.3,0.1l0.3,0.1l0.3,0.2l0.3,0.2l0.3,0.2l0.2,0.2l0.2,0.2l0.2,0.2l0.2,0.2l0.2,0.2l0.2,0.2l0.2,0.3l0.2,0.3l0.1,0.3 l0.2,0.3l0.1,0.3l0.1,0.3l0.2,0.7l0.2,0.7l0.1,0.7l0.1,0.8l0.1,0.8l0.1,1.7l-0.1,1.8l-0.1,1.9l-0.4,3.9l-0.3,2.1l-0.5,2.3l-0.6,2.5 l-0.8,2.7l-1.9,5.7l-2.4,6.2l-5.7,13l-6.3,13l-7.2,13l-8.2,13.5l-17.1,27.2l25.1-60.7l3.8-11.1l1.7-5.1l1.3-4.6l0.5-2.1l0.4-1.9 l0.2-1.8l0.1-0.8v-0.8v-0.7v-0.3v-0.3l-0.1-0.3v-0.3l-0.1-0.3l-0.1-0.3l-0.1-0.3l-0.1-0.2l-0.1-0.3l-0.2-0.2l-0.1-0.1l-0.1-0.1 l-0.1-0.1l-0.1-0.1l-0.1-0.1l-0.1-0.1l-0.1-0.1l-0.1-0.1l-0.8-0.6l-0.4-0.3l-0.4-0.2l-0.2-0.1l-0.2-0.1l-0.2-0.1l-0.2-0.1l-0.2-0.1 l-0.2-0.1h-0.2h-0.2h-0.2H374h-0.2h-0.2h-0.2h-0.3h-0.3h-0.3l-0.6,0.1l-0.6,0.2l-0.7,0.2l-0.8,0.3l-1.7,0.7l-2,0.9l-5.2,2.5 l-16.1,7.8l-132,67.9l-14.2,8.4l118,4.2l42.9,3.2l32.3,3.9l6.4,0.6l32.4,3.1l-34.9-1.2L388.4,126z M314,137.3L230.4,148l-17.4,1.3 l-16.1,0.5l-25.5-0.4l-4.5-0.2l-3.8-0.3l-3.1-0.4l-1.3-0.3l-1.2-0.3l-1.1-0.3l-0.9-0.3l-0.8-0.3l-0.7-0.3l-0.6-0.3l-0.5-0.3 l-0.4-0.3l-0.2-0.1l-0.2-0.1l-0.1-0.1l0,0l0,0l0,0l0,0l0,0l0,0l0,0l0,0l0,0l0,0l0,0l0,0l0,0l0,0l0,0l0,0l0,0l0,0l0,0l0,0l0,0l0,0 l0,0l0,0l0,0l0,0l0,0l0,0l0.1-0.1h0.1l0.1-0.1h0.1l0.1-0.1l0.2-0.1l0.2-0.1l0.2-0.1l0.3-0.1l0.6-0.3l1.5-0.5l1.8-0.5l4.1-1.2 l9.5-2.6l6.7-1.5l9.3-1.6l61.4-7.9h-18.2l-22.1,0.9l-14.5,1.4l-16.6,2.1l-30.3,4.9l-30,6.6l-11.8,2.8l10.3-13.5l-28,2.3l-17.6,21 l25.9,1.4l3.9-5.1l33.4,4.9l18.1,1.6l19.8,0.5l23.3-0.8l25.9-1.8l25.2-2.6l21-3.1l15.8-3.3l6.6-1.7l5.9-1.7l10.3-3.6L314,137.3 L314,137.3z"></path> </svg> 