<svg width="58" height="51" fill="none" xmlns="http://www.w3.org/2000/svg"><path fill-rule="evenodd" clip-rule="evenodd" d="M14.81 8.08c.8 0 1.38-.27 1.86-.75.7-.7.73-1.49.73-2.82 0-1.32-.03-2.11-.73-2.81a2.43 2.43 0 00-1.86-.75c-.82 0-1.4.27-1.88.75-.7.7-.7 1.49-.7 2.81 0 1.33 0 2.12.7 2.82.48.48 1.09.75 1.88.75zm0-5.9c.37 0 .68.14.87.36.27.29.34.65.34 1.97 0 1.33-.07 1.67-.34 1.96-.2.21-.5.38-.87.38-.38 0-.67-.17-.89-.38-.26-.3-.34-.6-.34-1.96 0-1.34.08-1.68.34-1.97.22-.22.53-.36.9-.36zM9 5.36H7.65v2.62H6.27V1H9c1.45 0 2.32.99 2.32 2.17 0 1.2-.87 2.19-2.32 2.19zm-.07-3.13H7.65v1.9h1.28c.62 0 1.01-.39 1.01-.96 0-.56-.39-.94-1.01-.94zM0 8V1.02h1.38v6.99H0zm1.38-3.66l2.26-3.33h1.64L2.94 4.3 5.52 8H3.84L1.38 4.36zm21.15 3.63V5.07h-2.36v2.91h-1.38V1h1.38v2.86h2.36V1h1.36v6.98h-1.36zm3-6.96v6.99h8.1V1.02h-1.37V6.8h-1.98V1.02H28.9V6.8h-2V1.02h-1.37zm12.37 1.2v5.79h-1.37V2.23h-1.84V1h5.02v1.23h-1.8zm5.94 4.56l.4 1.23h1.43l-2.56-6.99h-1.06L39.5 8.01h1.42l.43-1.23h2.49zm-2.1-1.16l.87-2.55.87 2.55h-1.74zm9.5 3.93V8h-3.88v1.54h-1.33V6.78h.65c.58-.9.85-2.39.85-4V1h4.22v5.78h.8v2.77h-1.3zm-.84-7.32h-1.54v1c0 1.38-.15 2.59-.63 3.55h2.17V2.23zM56.19 8V2.23H58V1h-5.02v1.23h1.84V8h1.37z" fill="#8A8A8D"/><path fill-rule="evenodd" clip-rule="evenodd" d="M0 51h4V14H0v37zm42 0h4V24h12v-4H42v31zM24.75 24H36v26.98l4 .02V20H27l-2.25 4zm-4-10H16.5L10 26.5V14H6v37h4V39l6.18 12h4.33l-9.33-18.3L20.75 14zM23 14l-9.66 18.68 9.34 18.3H27l-9.34-18.3L25.4 18H58v-4H23z" fill="#DA1A32"/></svg>